# xmcd
#
# Track frame offsets:
#  154
#  10393
#  20843
#  32550
#  41955
#  54443
#  66340
#  77428
#  90544
#  101958
#  114106
#  123766
#  138120
#  152000
#  164375
#  176535
#  189373
#  202946
#  213728
#  226715
#
# Disc length: 3203 seconds
#
# Revision: 2
# Processed by: cddbd v1.5.1PL2 Copyright (c) Steve Scherf et al.
# Submitted via: Collectorz.com_Music_Collector 6.9
#
DISCID=010c8114
DTITLE=Various Artist - Let's All Go Doo-Woppin' with The Crystals and The Mello Moods
DYEAR=1900
DGENRE=Doo-Wop
TTITLE0=Crystals, The - God Only Knows
TTITLE1=Crystals, The - My Dear
TTITLE2=Crystals, The - Don't You Go
TTITLE3=Crystals, The - Have Faith In Me
TTITLE4=Crystals, The - My Love
TTITLE5=Crystals, The - Four Woman
TTITLE6=Crystals, The - My Girl
TTITLE7=Crystals, The - Oh But She Did
TTITLE8=Crystals, The - My Hearts Desire
TTITLE9=Crystals, The - Come To Me Darling
TTITLE10=Crystals, The - Squeeze Me Baby
TTITLE11=Mello Moods, The - Where Are You
TTITLE12=Mello Moods, The - Call On Me
TTITLE13=Mello Moods, The - When I Woke Up This Morning
TTITLE14=Mello Moods, The - I Couldn't Sleep A Wink Last Night
TTITLE15=Mello Moods, The - I'm Lost
TTITLE16=Mello Moods, The - How Could You
TTITLE17=Mello Moods, The - I Tried And Tried And Tried
TTITLE18=Mello Moods, The - And I Just Can't Go Through Life Alone
TTITLE19=Mello Moods, The - The Christmas Song
EXTD=
EXTT0=
EXTT1=
EXTT2=
EXTT3=
EXTT4=
EXTT5=
EXTT6=
EXTT7=
EXTT8=
EXTT9=
EXTT10=
EXTT11=
EXTT12=
EXTT13=
EXTT14=
EXTT15=
EXTT16=
EXTT17=
EXTT18=
EXTT19=
PLAYORDER=
